<?xml version="1.0" encoding="UTF-8"?>
<svg width="24px" height="24px" viewBox="0 0 24 24" version="1.1" xmlns="http://www.w3.org/2000/svg">
    <g stroke="none" stroke-width="1" fill="none" fill-rule="evenodd">
        <path d="M12,2C6.48,2 2,6.48 2,12C2,13.96 2.58,15.75 3.54,17.29L2.1,22L6.9,20.58C8.43,21.5 10.17,22 12,22C17.52,22 22,17.52 22,12C22,6.48 17.52,2 12,2ZM12,20C10.42,20 8.93,19.57 7.61,18.77L7.41,18.65L4.83,19.47L5.67,16.97L5.53,16.76C4.68,15.41 4.2,13.79 4.2,12C4.2,7.71 7.71,4.2 12,4.2C16.29,4.2 19.8,7.71 19.8,12C19.8,16.29 16.29,19.8 12,19.8ZM16.47,14.19C16.24,14.08 15.06,13.51 14.85,13.43C14.64,13.36 14.49,13.32 14.34,13.55C14.19,13.78 13.74,14.31 13.61,14.46C13.48,14.61 13.35,14.63 13.12,14.52C12.89,14.41 12.12,14.16 11.21,13.34C10.5,12.71 10.03,11.93 9.9,11.7C9.77,11.47 9.89,11.35 10,11.24C10.1,11.14 10.23,10.97 10.34,10.84C10.45,10.71 10.49,10.61 10.56,10.46C10.63,10.31 10.59,10.18 10.54,10.07C10.49,9.96 10.03,8.78 9.84,8.32C9.66,7.87 9.47,7.93 9.33,7.92C9.2,7.91 9.05,7.91 8.9,7.91C8.75,7.91 8.5,7.96 8.29,8.19C8.08,8.42 7.47,8.99 7.47,10.17C7.47,11.35 8.34,12.49 8.45,12.64C8.56,12.79 10.02,15.05 12.26,16.08C12.84,16.34 13.29,16.5 13.64,16.62C14.21,16.82 14.73,16.79 15.14,16.74C15.6,16.68 16.56,16.18 16.75,15.63C16.94,15.08 16.94,14.62 16.89,14.54C16.84,14.46 16.69,14.41 16.47,14.19Z" fill="currentColor"/>
    </g>
</svg> 